<svg xmlns="http://www.w3.org/2000/svg" viewBox="0 0 160 160"><defs><radialGradient id="bg"><stop offset="0" stop-color="#c6a653" stop-opacity=".45"/><stop offset="1" stop-color="#08070b"/></radialGradient></defs><rect width="160" height="160" rx="18" fill="url(#bg)"/><path d="M8 140Q80 112 152 140V160H8Z" fill="#0008"/><path d="M80 22c-18 0-18 27 0 27s18-27 0-27zm0 27v35m-17-20h34" fill="none" stroke="#f4d67e" stroke-width="5"/><path d="M59 60q1-27 21-29 20 2 21 29l-8-9-13-8-13 8z" fill="#4b3b21"/><ellipse cx="80" cy="68" rx="23" ry="27" fill="#c68f61" stroke="#4c3228" stroke-width="2"/><path d="M68 67h7M85 67h7" stroke="#2a1b19" stroke-width="3" stroke-linecap="round"/><path d="M74 82q6 4 12 0" fill="none" stroke="#6d3f34" stroke-width="2"/><path d="M50 67l6-38 24-10 24 10 6 38-16-9-14-26-14 26z" fill="#c6a653" stroke="#4c3518" stroke-width="3"/><path d="M35 145q6-49 45-50 39 1 45 50z" fill="#4b3b21" stroke="#1d1920" stroke-width="3"/><path d="M55 101l25 27 25-27-9-5-16 15-16-15z" fill="#c6a653"/><path d="M77 111h6v34h-6z" fill="#d0aa5a" opacity=".75"/><rect x="5" y="5" width="150" height="150" rx="15" fill="none" stroke="#c6a653" stroke-width="4"/><rect x="11" y="11" width="138" height="138" rx="11" fill="none" stroke="#fff" opacity=".16"/></svg>